<svg width="249" height="33" viewBox="0 0 249 33" fill="none" xmlns="http://www.w3.org/2000/svg">
<path d="M0.200733 32V2.4H6.14073V14.14H16.3207V2.4H22.2407V32H16.3207V19.58H6.14073V32H0.200733ZM34.666 32.42C31.706 32.42 29.4394 31.5067 27.866 29.68C26.306 27.84 25.526 25.0067 25.526 21.18C25.526 13.58 28.5727 9.78 34.666 9.78C37.6127 9.78 39.8727 10.72 41.446 12.6C43.0194 14.4667 43.806 17.3067 43.806 21.12C43.806 28.6533 40.7594 32.42 34.666 32.42ZM34.666 28.02C35.386 28.02 35.9727 27.8333 36.426 27.46C36.8794 27.0867 37.226 26.4067 37.466 25.42C37.706 24.42 37.826 23.0133 37.826 21.2C37.826 19.3467 37.6994 17.9067 37.446 16.88C37.206 15.8533 36.8594 15.1467 36.406 14.76C35.9527 14.36 35.3727 14.16 34.666 14.16C33.9594 14.16 33.3794 14.3533 32.926 14.74C32.4727 15.1267 32.1194 15.8267 31.866 16.84C31.626 17.8533 31.506 19.2733 31.506 21.1C31.506 22.94 31.626 24.3667 31.866 25.38C32.106 26.38 32.4527 27.0733 32.906 27.46C33.3594 27.8333 33.946 28.02 34.666 28.02ZM46.8357 10.12H51.6357L52.0957 13.16H52.3557C53.3157 10.9333 55.0357 9.82 57.5157 9.82C58.0491 9.82 58.5357 9.86667 58.9757 9.96V15.4C58.4424 15.2933 57.8291 15.24 57.1357 15.24C56.2157 15.24 55.3491 15.4333 54.5357 15.82C53.7224 16.2067 53.1024 16.7267 52.6757 17.38V32H46.8357V10.12ZM61.406 32V10.12H67.266V32H61.406ZM64.326 6.92C63.0994 6.92 62.1794 6.63333 61.566 6.06C60.966 5.48667 60.666 4.67333 60.666 3.62C60.666 2.56667 60.966 1.75333 61.566 1.18C62.1794 0.593332 63.0994 0.299999 64.326 0.299999C65.5527 0.299999 66.466 0.593332 67.066 1.18C67.6794 1.75333 67.986 2.56667 67.986 3.62C67.986 4.67333 67.6794 5.48667 67.066 6.06C66.466 6.63333 65.5527 6.92 64.326 6.92ZM76.6317 27.4H85.2717V32H70.1317V28.38L78.5717 14.72H70.3317V10.12H85.0717V13.74L76.6317 27.4ZM95.6817 32.42C92.7217 32.42 90.455 31.5067 88.8817 29.68C87.3217 27.84 86.5417 25.0067 86.5417 21.18C86.5417 13.58 89.5883 9.78 95.6817 9.78C98.6283 9.78 100.888 10.72 102.462 12.6C104.035 14.4667 104.822 17.3067 104.822 21.12C104.822 28.6533 101.775 32.42 95.6817 32.42ZM95.6817 28.02C96.4017 28.02 96.9883 27.8333 97.4417 27.46C97.895 27.0867 98.2417 26.4067 98.4817 25.42C98.7217 24.42 98.8417 23.0133 98.8417 21.2C98.8417 19.3467 98.715 17.9067 98.4617 16.88C98.2217 15.8533 97.875 15.1467 97.4217 14.76C96.9683 14.36 96.3883 14.16 95.6817 14.16C94.975 14.16 94.395 14.3533 93.9417 14.74C93.4883 15.1267 93.135 15.8267 92.8817 16.84C92.6417 17.8533 92.5217 19.2733 92.5217 21.1C92.5217 22.94 92.6417 24.3667 92.8817 25.38C93.1217 26.38 93.4683 27.0733 93.9217 27.46C94.375 27.8333 94.9617 28.02 95.6817 28.02ZM107.851 10.12H112.711L113.131 12.42H113.411C114.785 10.66 116.605 9.78 118.871 9.78C120.751 9.78 122.245 10.3867 123.351 11.6C124.471 12.8133 125.031 14.76 125.031 17.44V32H119.191V17.88C119.191 16.8267 118.978 16.08 118.551 15.64C118.138 15.2 117.551 14.98 116.791 14.98C116.205 14.98 115.625 15.12 115.051 15.4C114.491 15.6667 114.038 16.0667 113.691 16.6V32H107.851V10.12ZM137.701 32V2.4H143.641V14.14H153.821V2.4H159.741V32H153.821V19.58H143.641V32H137.701ZM172.166 32.42C169.206 32.42 166.939 31.5067 165.366 29.68C163.806 27.84 163.026 25.0067 163.026 21.18C163.026 13.58 166.073 9.78 172.166 9.78C175.113 9.78 177.373 10.72 178.946 12.6C180.519 14.4667 181.306 17.3067 181.306 21.12C181.306 28.6533 178.259 32.42 172.166 32.42ZM172.166 28.02C172.886 28.02 173.473 27.8333 173.926 27.46C174.379 27.0867 174.726 26.4067 174.966 25.42C175.206 24.42 175.326 23.0133 175.326 21.2C175.326 19.3467 175.199 17.9067 174.946 16.88C174.706 15.8533 174.359 15.1467 173.906 14.76C173.453 14.36 172.873 14.16 172.166 14.16C171.459 14.16 170.879 14.3533 170.426 14.74C169.973 15.1267 169.619 15.8267 169.366 16.84C169.126 17.8533 169.006 19.2733 169.006 21.1C169.006 22.94 169.126 24.3667 169.366 25.38C169.606 26.38 169.953 27.0733 170.406 27.46C170.859 27.8333 171.446 28.02 172.166 28.02ZM205.856 9.78C207.749 9.78 209.256 10.3933 210.376 11.62C211.496 12.8333 212.056 14.8 212.056 17.52V32H206.216V17.84C206.216 15.9333 205.436 14.98 203.876 14.98C203.396 14.98 202.896 15.1 202.376 15.34C201.869 15.5667 201.429 15.9133 201.056 16.38C201.069 16.5533 201.076 16.8267 201.076 17.2V32H195.356V17.84C195.356 16.8133 195.156 16.08 194.756 15.64C194.369 15.2 193.816 14.98 193.096 14.98C192.576 14.98 192.036 15.12 191.476 15.4C190.929 15.68 190.496 16.0933 190.176 16.64V32H184.336V10.12H189.196L189.616 12.44H189.896C191.269 10.6667 193.089 9.78 195.356 9.78C196.422 9.78 197.369 10.0067 198.196 10.46C199.022 10.9 199.682 11.6067 200.176 12.58C200.896 11.6467 201.749 10.9467 202.736 10.48C203.722 10.0133 204.762 9.78 205.856 9.78ZM232.06 22.88H220.88C220.933 24.1067 221.133 25.0733 221.48 25.78C221.84 26.4733 222.393 26.9733 223.14 27.28C223.887 27.5733 224.9 27.72 226.18 27.72C227.54 27.72 229.153 27.4733 231.02 26.98V31.68C229.98 31.9333 229.02 32.12 228.14 32.24C227.26 32.36 226.36 32.42 225.44 32.42C222.973 32.42 220.973 32.0333 219.44 31.26C217.907 30.4733 216.773 29.2467 216.04 27.58C215.307 25.9 214.94 23.7 214.94 20.98C214.94 17.3 215.707 14.5133 217.24 12.62C218.787 10.7267 220.987 9.78 223.84 9.78C226.533 9.78 228.573 10.7267 229.96 12.62C231.36 14.5133 232.06 17.3533 232.06 21.14V22.88ZM223.8 13.66C223.16 13.66 222.627 13.82 222.2 14.14C221.787 14.46 221.46 15.0333 221.22 15.86C220.993 16.6733 220.873 17.8067 220.86 19.26H226.6C226.587 17.7933 226.473 16.6533 226.26 15.84C226.047 15.0267 225.74 14.46 225.34 14.14C224.94 13.82 224.427 13.66 223.8 13.66ZM240.063 32.42C237.983 32.42 236.089 32.12 234.383 31.52V26.86C236.196 27.4733 238.049 27.78 239.943 27.78C242.156 27.78 243.263 27.04 243.263 25.56C243.263 25.0133 243.123 24.5867 242.843 24.28C242.563 23.9733 242.129 23.74 241.543 23.58L238.743 22.9C237.076 22.4867 235.823 21.7733 234.983 20.76C234.156 19.7333 233.743 18.36 233.743 16.64C233.743 15.2667 234.083 14.0667 234.763 13.04C235.443 12 236.443 11.2 237.763 10.64C239.096 10.0667 240.716 9.78 242.623 9.78C244.329 9.78 245.923 9.96 247.403 10.32V14.98C245.963 14.6067 244.476 14.42 242.943 14.42C241.569 14.42 240.576 14.6267 239.963 15.04C239.363 15.4533 239.063 15.9867 239.063 16.64C239.063 17.1467 239.196 17.5467 239.463 17.84C239.743 18.12 240.176 18.34 240.763 18.5L243.563 19.2C245.269 19.6267 246.529 20.34 247.343 21.34C248.169 22.3267 248.583 23.6867 248.583 25.42C248.583 26.86 248.236 28.1067 247.543 29.16C246.849 30.2 245.863 31.0067 244.583 31.58C243.303 32.14 241.796 32.42 240.063 32.42Z" fill="white"/>
</svg>
