<svg width="24" height="25" viewBox="0 0 24 25" fill="none" xmlns="http://www.w3.org/2000/svg">
<path d="M13.2109 12.5079L14.9893 14.5404L17.3944 16.0817L17.8179 12.5249L17.3944 9.05273L14.9555 10.4077L13.2109 12.5079Z" fill="#00832D"/>
<path d="M2.8457 15.7439V18.7756C2.8457 19.47 3.40463 20.029 4.09906 20.029H7.13081L7.75749 17.7425L7.14775 15.7439L5.06448 15.1172L2.8457 15.7439Z" fill="#0066DA"/>
<path d="M7.14775 4.9707L2.8457 9.25581L5.04754 9.88249L7.13081 9.25581L7.74055 7.2911L7.14775 4.9707Z" fill="#E94235"/>
<path d="M7.14775 9.25586H2.8457V15.7428H7.13081V9.25586H7.14775Z" fill="#2684FC"/>
<path d="M20.1223 6.78328L17.3785 9.03592V16.0818L20.1223 18.3344C20.5288 18.6562 21.1386 18.3683 21.1386 17.8433V7.27446C21.1555 6.7494 20.5458 6.44453 20.1223 6.78328ZM13.212 12.508V15.7431H7.14844V20.0282H16.1421C16.8365 20.0282 17.3954 19.4692 17.3954 18.7748V16.0818L13.212 12.508Z" fill="#00AC47"/>
<path d="M16.1421 4.9707H7.14844V9.25581H13.212V12.4908L17.3954 9.01869V6.22406C17.3954 5.52963 16.8365 4.9707 16.1421 4.9707Z" fill="#FFBA00"/>
</svg>
