<svg width="100" height="101" viewBox="0 0 100 101" fill="none" xmlns="http://www.w3.org/2000/svg">
<path d="M74.9164 45.2924V61.959C74.9164 63.0424 74.8747 64.084 74.7497 65.084C73.7913 76.334 67.1663 81.9173 54.958 81.9173H53.2913C52.2497 81.9173 51.2496 82.4173 50.6246 83.2506L45.6247 89.9173C43.4164 92.8756 39.833 92.8756 37.6246 89.9173L32.6246 83.2506C32.0829 82.5423 30.8747 81.9173 29.958 81.9173H28.2913C14.9997 81.9173 8.33298 78.6257 8.33298 61.959V45.2924C8.33298 33.084 13.958 26.459 25.1663 25.5007C26.1663 25.3757 27.208 25.334 28.2913 25.334H54.958C68.2497 25.334 74.9164 32.0007 74.9164 45.2924Z" stroke="#58BF52" stroke-width="4.66667" stroke-miterlimit="10" stroke-linecap="round" stroke-linejoin="round"/>
<path d="M91.583 28.6263V45.293C91.583 57.543 85.958 64.1263 74.7497 65.0847C74.8747 64.0847 74.9164 63.043 74.9164 61.9597V45.293C74.9164 32.0013 68.2497 25.3346 54.958 25.3346H28.2914C27.208 25.3346 26.1664 25.3763 25.1664 25.5013C26.1247 14.293 32.7497 8.66797 44.958 8.66797H71.6247C84.9163 8.66797 91.583 15.3347 91.583 28.6263Z" stroke="#58BF52" stroke-width="4.66667" stroke-miterlimit="10" stroke-linecap="round" stroke-linejoin="round"/>
<path d="M56.2309 55.5423H56.2684" stroke="#58BF52" stroke-width="4.66667" stroke-linecap="round" stroke-linejoin="round"/>
<path d="M41.6476 55.5423H41.6851" stroke="#58BF52" stroke-width="4.66667" stroke-linecap="round" stroke-linejoin="round"/>
<path d="M27.0642 55.5423H27.1017" stroke="#58BF52" stroke-width="4.66667" stroke-linecap="round" stroke-linejoin="round"/>
</svg>
