<svg width="24" height="23" viewBox="0 0 24 23" fill="none" xmlns="http://www.w3.org/2000/svg">
<path d="M11.9996 0.0996094C5.70345 0.0996094 0.599609 5.21713 0.599609 11.5299C1.20009 26.6919 22.8013 26.6875 23.3996 11.5299C23.3996 5.21713 18.2955 0.0996094 11.9996 0.0996094Z" fill="#2D8CFF"/>
<path d="M18.7874 14.7542C18.7751 15.3557 18.2932 15.5587 17.8262 15.2258C16.9552 14.6162 16.0902 13.9982 15.2219 13.3853C15.2241 13.669 15.2202 14.3371 15.2217 14.6278C15.2214 15.1668 14.9536 15.4291 14.4033 15.4294L9.71463 15.4298C8.92023 15.4301 8.12607 15.4303 7.33167 15.4294C5.82999 15.4277 4.82079 14.4439 4.82031 12.9811V8.37191C4.82031 7.82519 5.07975 7.57031 5.63631 7.57031C7.54455 7.60655 10.8786 7.57439 12.7494 7.57103C14.0754 7.57247 15.0347 8.39711 15.195 9.61583C16.0725 8.99663 16.9463 8.37239 17.8262 7.75631C18.232 7.46183 18.7662 7.55639 18.7874 8.22815C18.7931 10.3368 18.8001 12.6415 18.7874 14.7542Z" fill="#F1F1F1"/>
</svg>
